<svg xmlns="http://www.w3.org/2000/svg" xmlns:xlink="http://www.w3.org/1999/xlink" version="1.1" id="Layer_1" x="0px" y="0px" width="100%" viewBox="0 0 600 600" enable-background="new 0 0 600 600" xml:space="preserve">


<rect x="0" y="0" width="100%" height="100%" fill="#2593E1" rx="10%"/>
<path xmlns="http://www.w3.org/2000/svg" fill="#FEFFFF" opacity="1.000000" stroke="none" d=" M426.979187,194.085236   C427.711212,219.068237 425.403503,243.151123 416.656006,266.256195   C402.320435,304.121246 374.880219,328.846619 337.988617,343.807770   C314.024139,353.526428 288.931732,358.855164 263.186798,359.843384   C240.080780,360.730286 216.913834,360.030182 193.241669,360.030182   C193.241669,423.900146 193.241669,486.615326 193.241669,549.664490   C159.797516,549.664490 126.883179,549.664490 93.557892,549.664490   C93.557892,384.415588 93.557892,219.053238 93.557892,53.202435   C94.822266,53.093140 96.240341,52.861401 97.658012,52.863823   C144.981995,52.944656 192.320572,52.358353 239.625336,53.362370   C278.611572,54.189835 316.951324,60.001926 352.573975,77.256538   C396.858704,98.706825 421.170837,134.251938 426.062866,183.152451   C426.410706,186.629333 426.665558,190.115494 426.979187,194.085236  M307.346954,255.822128   C316.558472,245.063553 321.131805,232.407837 322.399536,218.474762   C325.842621,180.633347 311.059814,149.021973 269.540436,136.911774   C244.774704,129.688187 219.392441,131.578018 194.132523,131.561783   C193.853363,131.561615 193.574005,131.888962 193.361694,132.021606   C193.361694,182.123825 193.361694,232.180573 193.361694,282.601257   C216.001495,282.411865 238.349701,283.798309 260.424927,279.665527   C278.067841,276.362549 294.364197,270.053467 307.346954,255.822128  z"/>
<path fill="#FFF" opacity="1.000000" stroke="none" d=" M333.729431,515.267029   C334.930603,519.354187 336.497864,523.088989 336.766083,526.914978   C337.195007,533.032776 337.465485,538.658386 345.068451,540.312500   C346.154236,540.548706 346.794464,542.832764 348.066528,544.841064   C369.153961,546.162781 391.018616,543.688538 412.373169,537.373352   C449.870483,526.284363 481.015686,505.431122 506.322296,475.658234   C509.221313,472.247589 509.575378,470.006317 506.681519,466.325104   C504.831665,463.971954 504.232697,460.281860 503.970032,457.116669   C503.565735,452.244751 503.012054,447.837952 499.771881,443.658752   C498.299194,441.759308 498.026001,436.983948 499.396729,435.136963   C509.408783,421.646484 505.358063,409.828552 495.783691,398.585052   C491.561188,393.626434 488.542633,389.035492 491.708557,382.054382   C493.570984,377.947540 491.431244,375.209473 486.693054,374.467072   C481.036591,373.580719 475.936951,371.929596 471.038513,368.681915   C465.168274,364.789886 459.691101,368.694733 454.978546,371.823517   C445.941467,377.823486 433.893829,375.081909 428.529022,367.526245   C424.671814,362.093872 421.657928,355.915863 419.150757,349.713562   C416.707642,343.669830 417.447021,337.680237 422.502441,332.689606   C424.492096,330.725372 425.025208,328.536255 421.073761,327.932343   C420.000427,327.768311 418.996216,327.151703 417.479584,326.553040   C420.408539,319.932129 425.503174,315.652924 430.469696,311.326111   C432.445679,309.604614 434.995667,308.530609 436.919983,306.764771   C438.430695,305.378418 439.974548,303.537415 440.476013,301.628448   C442.476166,294.014771 444.897247,291.651398 452.570770,291.031708   C454.386108,290.885132 456.260437,290.888611 458.054962,291.165100   C465.941467,292.380127 473.034607,290.844879 479.945953,286.615387   C486.888489,282.366730 490.548859,284.807617 491.081940,292.903015   C491.189423,294.535156 491.983154,296.768005 493.212982,297.570007   C498.904144,301.281219 505.149750,303.448975 512.071228,301.835754   C513.409485,301.523865 514.783386,300.543915 515.726807,299.498505   C520.181519,294.562164 523.467163,294.134796 528.737061,298.767670   C532.828186,302.364227 537.206421,304.373688 544.032715,303.738922   C541.116638,295.884613 538.483398,288.513458 535.612976,281.235870   C534.784729,279.136108 533.380432,277.227814 532.032288,275.383728   C531.341858,274.439270 530.192261,273.830475 529.250122,273.069946   C528.504028,274.007935 527.603271,274.863007 527.046143,275.902252   C526.074463,277.714813 525.314392,279.640747 524.465576,281.519165   C522.504944,280.414154 520.052185,279.725189 518.690125,278.114105   C516.166199,275.128784 514.291199,271.597015 512.124634,268.306793   C510.327820,265.578033 508.750946,262.465363 504.195862,263.473633   C506.851562,268.751556 509.399353,273.815002 512.501709,279.980621   C509.930206,279.508392 508.789215,279.298828 507.539368,279.069305   C506.739868,280.836761 506.213684,282.878906 505.000366,284.357025   C504.256409,285.263367 502.459564,285.305481 501.135529,285.735657   C500.962799,284.556122 500.291351,283.155396 500.700073,282.233643   C502.980469,277.090393 500.690369,273.630676 496.876282,270.568909   C495.058105,269.109344 493.305603,267.568146 491.493835,266.100372   C490.722443,265.475464 489.946991,264.760071 489.047241,264.409698   C487.392090,263.765076 485.250977,262.458221 483.998505,263.003448   C476.538849,266.250977 467.677399,258.386719 460.840088,266.202515   C456.490936,271.174103 451.574677,275.649811 447.229706,280.624756   C443.717773,284.645874 441.473419,285.013916 437.816589,281.255310   C437.120819,280.540192 436.382751,279.827484 435.857330,278.992157   C433.667389,275.510468 430.740295,272.121002 432.987152,267.589172   C435.279297,262.965942 439.788391,262.897583 443.789795,263.581299   C451.517700,264.901825 457.235291,262.299713 462.448669,256.746094   C467.218384,251.665146 472.402313,246.880112 477.914398,242.626480   C480.869476,240.346100 484.876282,239.398972 488.459412,237.978653   C489.666992,237.499985 491.376068,237.815964 492.246704,237.063660   C493.697357,235.810165 494.656799,233.988190 495.823059,232.405579   C494.200470,231.611588 492.554474,230.113327 490.959991,230.166275   C487.337769,230.286499 483.790863,231.271774 483.521942,225.742111   C483.489502,225.074692 481.328125,224.633713 480.329865,223.860138   C478.995758,222.826324 476.821167,221.535797 476.858856,220.417892   C476.904388,219.067825 478.662537,217.405487 480.084442,216.557114   C482.305664,215.231812 484.867218,214.477005 488.478149,212.988480   C483.553375,208.857208 479.652710,204.790176 475.030792,201.861160   C462.579224,193.970291 449.907898,186.411346 437.114166,179.086823   C434.315796,177.484756 432.924591,175.998901 432.696838,172.787048   C432.454651,169.371582 431.496582,166.006882 430.754333,162.112320   C447.688263,168.178848 463.102051,175.938034 476.781128,186.476410   C488.597748,195.579941 500.028656,205.374802 510.516418,215.966797   C525.363708,230.961655 536.429016,248.795319 544.980835,268.103027   C552.547729,285.186920 558.096130,302.921143 561.193604,321.361633   C563.733154,336.480988 564.326843,351.641937 563.272278,367.018646   C562.033142,385.088928 558.563171,402.563599 552.881836,419.681488   C544.002747,446.434021 529.719421,469.970154 510.908722,490.895752   C494.470764,509.181793 475.136017,523.790588 453.563782,535.252747   C430.919067,547.284668 406.567902,554.194336 381.025757,557.064819   C354.221527,560.077148 327.852966,557.858826 302.075470,550.332397   C263.471558,539.060913 230.828827,518.145203 204.212173,487.901642   C201.748459,485.102234 200.712677,482.174561 200.924484,478.436798   C201.213913,473.329346 200.996750,468.193207 200.996750,461.841248   C232.929413,506.018829 274.630157,532.757935 327.512573,541.913086   C315.849365,532.288330 313.039154,518.930664 310.761658,505.186188   C310.218323,501.907349 307.501038,499.038116 306.604736,495.756226   C305.413666,491.395111 304.965515,486.823151 304.313538,482.325073   C303.683960,477.981537 303.992157,473.315125 302.473297,469.329895   C300.014221,462.877930 299.255341,456.560394 300.297607,449.821716   C301.055756,444.919769 299.832306,440.580627 295.368500,437.749573   C292.704407,436.059937 289.978577,434.451599 287.191284,432.975189   C276.993134,427.573364 269.164825,420.064484 264.981323,409.036896   C263.096069,404.067413 264.051147,399.903381 267.634430,396.247681   C270.655762,393.165283 274.089355,390.453094 276.876068,387.181427   C283.308411,379.629639 281.530396,373.533691 272.187714,370.121246   C270.958313,369.672272 269.734589,369.207703 268.467896,367.854523   C272.725372,367.276794 276.991241,366.753998 281.238312,366.107880   C286.989990,365.232849 292.703094,364.053986 298.476715,363.385468   C306.286804,362.481140 314.131317,361.622650 321.977203,361.440735   C324.184692,361.389557 327.119232,363.267456 328.552673,365.149750   C331.946503,369.606171 335.882599,372.718170 341.467621,373.645233   C346.900299,374.546997 350.654999,377.700989 353.681183,382.240692   C358.750305,389.845123 365.814331,394.022125 375.224243,392.979553   C381.343353,392.301544 385.402283,394.475067 387.902008,400.229034   C388.647064,401.944092 390.676758,403.470917 392.478790,404.286835   C397.657349,406.631775 399.401978,410.209900 397.111176,415.402893   C396.045807,417.817963 394.642975,420.107697 393.197296,422.326691   C389.889740,427.403687 388.504913,432.708252 389.631805,438.856598   C391.130249,447.032227 389.455292,451.840546 384.691010,453.430145   C381.593994,454.463409 378.193604,454.680756 374.904175,455.024841   C368.000458,455.747070 364.702454,458.616669 365.119202,465.573761   C365.865784,478.036682 359.731903,486.352966 350.170868,492.938934   C345.651550,496.052002 340.919037,498.857391 336.424438,502.004059   C330.674652,506.029541 330.091156,509.011902 333.729431,515.267029  z"/>
<path fill="#F5FBF9" opacity="1.000000" stroke="none" d=" M469.021576,240.574188   C468.214996,242.597733 467.744568,244.519241 466.545868,245.703705   C465.407013,246.829010 463.241852,248.024521 462.015564,247.638870   C460.803650,247.257736 459.629333,245.008621 459.433502,243.453644   C458.666595,237.364563 458.197327,231.231262 457.855133,225.101120   C457.787231,223.884354 458.687286,221.610718 459.280548,221.563110   C460.626862,221.455048 462.626282,222.018265 463.362213,223.032639   C467.031708,228.090286 469.447723,233.684357 469.021576,240.574188  z"/>
<path fill="#EFF8F4" opacity="1.000000" stroke="none" d=" M453.380615,236.870453   C454.799316,238.645126 456.412811,240.201004 456.737946,241.990906   C456.914673,242.963806 454.768036,245.416046 453.902283,245.309433   C451.857422,245.057587 448.651550,244.052734 448.248871,242.671936   C447.278534,239.344284 448.530334,236.370605 453.380615,236.870453  z"/>

<path fill="#FFF" opacity="1.000000" stroke="none" d=" M267.972412,185.986252   C269.612671,186.136414 271.624573,185.727783 272.831055,186.530182   C279.202209,190.767426 284.824646,188.078583 290.647766,185.285294   C293.603210,183.867584 296.785400,182.839203 299.964081,182.017899   C301.000214,181.750183 303.010315,182.373291 303.394348,183.163071   C303.915863,184.235535 303.694946,186.068893 303.090546,187.201294   C302.008972,189.227753 299.930695,190.799545 299.156860,192.890045   C298.459045,194.775269 298.949554,197.100357 298.915955,199.231445   C301.068420,198.596344 303.915222,198.599472 305.217438,197.182816   C307.398987,194.809555 308.565094,191.513184 310.235565,188.650238   C310.529510,188.146469 311.199677,187.862213 312.802216,186.617264   C313.723572,195.117004 314.547638,202.719376 315.415924,210.729736   C313.400238,210.883881 312.133026,211.135757 310.888641,211.051300   C301.398407,210.407242 295.783142,216.262497 291.234558,223.262512   C288.261627,227.837738 290.419281,231.382217 295.823761,231.980530   C302.621124,232.733047 301.053162,233.316788 303.462891,239.789505   C306.759064,248.643204 300.461273,251.572067 296.186371,255.454208   C286.464447,264.282928 274.431366,268.696198 261.699097,271.336853   C241.793732,275.465149 221.660980,274.154572 201.272079,274.376282   C201.165970,272.497803 201.013916,271.039978 201.012085,269.581970   C200.994171,255.253983 200.860519,240.923294 201.132980,226.600464   C201.181107,224.070618 202.290649,220.901611 204.041077,219.173340   C213.493179,209.840942 222.881668,200.363861 233.084015,191.890152   C248.980133,178.687378 267.368591,169.535355 286.578339,162.184921   C296.077637,158.550095 299.100586,160.240662 303.728149,169.337799   C291.908142,174.678284 280.070801,180.026596 267.763733,185.665680   C261.203491,189.534180 255.113007,193.111923 247.893845,197.352661   C254.993637,200.427383 260.642731,203.199020 266.537018,205.274277   C269.067627,206.165237 272.286743,206.238876 274.857758,205.506668   C276.816284,204.948868 278.246063,202.534485 279.911072,200.946075   C278.215607,199.671204 276.599792,198.264008 274.791840,197.176056   C273.857544,196.613815 272.520905,196.768814 271.471222,196.341431   C265.946289,194.091797 264.950073,191.064255 267.972412,185.986252  z"/>

</svg>